<svg width="24" height="24" viewBox="0 0 24 24" fill="none" xmlns="http://www.w3.org/2000/svg">
<path d="M16.8885 0.333008H7.11183C2.86516 0.333008 0.333496 2.86467 0.333496 7.11134V16.8763C0.333496 21.1347 2.86516 23.6663 7.11183 23.6663H16.8768C21.1235 23.6663 23.6552 21.1347 23.6552 16.888V7.11134C23.6668 2.86467 21.1352 0.333008 16.8885 0.333008ZM14.2402 16.818H8.50016C8.02183 16.818 7.62516 16.4213 7.62516 15.943C7.62516 15.4647 8.02183 15.068 8.50016 15.068H14.2402C15.7335 15.068 16.9585 13.8547 16.9585 12.3497C16.9585 10.8447 15.7452 9.63134 14.2402 9.63134H8.32516L8.6285 9.93467C8.96683 10.2847 8.96683 10.833 8.61683 11.183C8.44183 11.358 8.22016 11.4397 7.9985 11.4397C7.77683 11.4397 7.55516 11.358 7.38016 11.183L5.5485 9.33967C5.21016 9.00134 5.21016 8.44134 5.5485 8.10301L7.38016 6.27134C7.7185 5.93301 8.2785 5.93301 8.61683 6.27134C8.95516 6.60967 8.95516 7.16967 8.61683 7.50801L8.23183 7.89301H14.2402C16.7018 7.89301 18.7085 9.89968 18.7085 12.3613C18.7085 14.823 16.7018 16.818 14.2402 16.818Z" fill="#FF9138"/>
</svg>
